<svg width="84" height="84" viewBox="0 0 84 84" fill="none" xmlns="http://www.w3.org/2000/svg">
<circle cx="42" cy="42" r="42" fill="#EFF3F6"/>
<path d="M47.8061 61.9C45.9513 61.9031 44.1604 61.2232 42.7749 59.9901V49.15H47.8749C48.8894 49.15 49.8623 48.747 50.5796 48.0297C51.2969 47.3124 51.6999 46.3395 51.6999 45.325V43.8333C52.5506 43.5325 53.2676 42.9407 53.7242 42.1624C54.1807 41.3841 54.3474 40.4695 54.1949 39.5802C54.0423 38.6909 53.5802 37.8842 52.8904 37.3026C52.2005 36.721 51.3272 36.402 50.4249 36.402C49.5226 36.402 48.6494 36.721 47.9595 37.3026C47.2697 37.8842 46.8076 38.6909 46.655 39.5802C46.5024 40.4695 46.6692 41.3841 47.1257 42.1624C47.5823 42.9407 48.2992 43.5325 49.1499 43.8333V45.325C49.1499 45.6632 49.0156 45.9875 48.7765 46.2266C48.5374 46.4657 48.2131 46.6 47.8749 46.6H42.7749V22.2781C43.6133 21.6692 44.5913 21.2809 45.619 21.1489C46.6468 21.017 47.6911 21.1456 48.6561 21.523C49.6211 21.9003 50.4757 22.5143 51.1413 23.3084C51.8069 24.1026 52.262 25.0513 52.4649 26.0674L52.7837 27.6663L53.819 27.8728C55.3784 28.1856 56.7813 29.0286 57.7896 30.2586C58.7979 31.4886 59.3492 33.0297 59.3499 34.6201V35.125C59.3499 36.9763 58.5594 38.644 57.2972 39.8094C58.8389 40.5733 60.1045 41.7985 60.918 43.3147C61.7316 44.8309 62.0527 46.5628 61.8368 48.2699C61.6209 49.9769 60.8786 51.5744 59.7132 52.8403C58.5478 54.1062 57.0171 54.9777 55.3337 55.3338L55.2393 55.8055C54.897 57.5246 53.969 59.0718 52.6135 60.1831C51.258 61.2945 49.559 61.9013 47.8061 61.9ZM36.5963 21.1C37.9529 21.1 39.2049 21.5361 40.2249 22.2781V31.3H38.7332C38.4324 30.4493 37.8406 29.7323 37.0623 29.2758C36.2841 28.8192 35.3694 28.6525 34.4801 28.8051C33.5908 28.9577 32.7841 29.4197 32.2025 30.1096C31.6209 30.7994 31.3019 31.6727 31.3019 32.575C31.3019 33.4773 31.6209 34.3506 32.2025 35.0404C32.7841 35.7303 33.5908 36.1923 34.4801 36.3449C35.3694 36.4975 36.2841 36.3308 37.0623 35.8742C37.8406 35.4177 38.4324 34.7007 38.7332 33.85H40.2249V59.9901C39.2274 60.875 38.014 61.4812 36.7073 61.7474C35.4006 62.0136 34.0468 61.9304 32.7825 61.5062C31.5182 61.082 30.3882 60.3318 29.5065 59.3314C28.6247 58.3309 28.0225 57.1156 27.7605 55.8081L27.6662 55.3338C26.2219 55.0279 24.8857 54.3416 23.7957 53.3459C22.7058 52.3502 21.9018 51.0813 21.467 49.6705C21.0322 48.2597 20.9824 46.7583 21.3227 45.3218C21.663 43.8852 22.3811 42.5658 23.4026 41.5H32.5749C32.9131 41.5 33.2374 41.6343 33.4765 41.8734C33.7156 42.1126 33.8499 42.4369 33.8499 42.775V44.2668C32.9992 44.5675 32.2823 45.1593 31.8257 45.9376C31.3692 46.7159 31.2024 47.6305 31.355 48.5198C31.5076 49.4091 31.9697 50.2159 32.6595 50.7974C33.3494 51.379 34.2226 51.698 35.1249 51.698C36.0272 51.698 36.9005 51.379 37.5904 50.7974C38.2802 50.2159 38.7423 49.4091 38.8949 48.5198C39.0474 47.6305 38.8807 46.7159 38.4242 45.9376C37.9676 45.1593 37.2506 44.5675 36.3999 44.2668V42.775C36.3999 41.7606 35.9969 40.7876 35.2796 40.0703C34.5623 39.353 33.5894 38.95 32.5749 38.95H24.9249C24.0973 37.8465 23.6499 36.5044 23.6499 35.125V34.6201C23.6507 33.0297 24.202 31.4886 25.2103 30.2586C26.2185 29.0286 27.6215 28.1856 29.1809 27.8728L30.2162 27.6688L30.5349 26.0674C30.8137 24.6656 31.5704 23.404 32.6759 22.498C33.7814 21.5921 35.167 21.098 36.5963 21.1ZM35.1249 31.3C35.4631 31.3 35.7874 31.4343 36.0265 31.6734C36.2656 31.9126 36.3999 32.2369 36.3999 32.575C36.3999 32.9132 36.2656 33.2375 36.0265 33.4766C35.7874 33.7157 35.4631 33.85 35.1249 33.85C34.7868 33.85 34.4625 33.7157 34.2234 33.4766C33.9843 33.2375 33.8499 32.9132 33.8499 32.575C33.8499 32.2369 33.9843 31.9126 34.2234 31.6734C34.4625 31.4343 34.7868 31.3 35.1249 31.3ZM35.1249 49.15C35.4631 49.15 35.7874 49.0157 36.0265 48.7766C36.2656 48.5375 36.3999 48.2132 36.3999 47.875C36.3999 47.5369 36.2656 47.2126 36.0265 46.9734C35.7874 46.7343 35.4631 46.6 35.1249 46.6C34.7868 46.6 34.4625 46.7343 34.2234 46.9734C33.9843 47.2126 33.8499 47.5369 33.8499 47.875C33.8499 48.2132 33.9843 48.5375 34.2234 48.7766C34.4625 49.0157 34.7868 49.15 35.1249 49.15ZM50.4249 41.5C50.7631 41.5 51.0874 41.3657 51.3265 41.1266C51.5656 40.8875 51.6999 40.5632 51.6999 40.225C51.6999 39.8869 51.5656 39.5625 51.3265 39.3234C51.0874 39.0843 50.7631 38.95 50.4249 38.95C50.0868 38.95 49.7625 39.0843 49.5234 39.3234C49.2843 39.5625 49.1499 39.8869 49.1499 40.225C49.1499 40.5632 49.2843 40.8875 49.5234 41.1266C49.7625 41.3657 50.0868 41.5 50.4249 41.5Z" fill="#406175"/>
</svg>
