<svg width="84" height="84" viewBox="0 0 84 84" fill="none" xmlns="http://www.w3.org/2000/svg">
<circle cx="42" cy="42" r="42" fill="#EFF3F6"/>
<path d="M51 52.1251V56.3751H21.25V52.1251C21.25 52.1251 21.25 43.6251 36.125 43.6251C51 43.6251 51 52.1251 51 52.1251ZM43.5625 31.9376C43.5625 30.4666 43.1263 29.0286 42.3091 27.8055C41.4918 26.5824 40.3302 25.6292 38.9712 25.0662C37.6122 24.5033 36.1167 24.356 34.674 24.643C33.2313 24.93 31.906 25.6383 30.8659 26.6785C29.8257 27.7186 29.1174 29.0439 28.8304 30.4866C28.5434 31.9293 28.6907 33.4248 29.2536 34.7838C29.8166 36.1428 30.7699 37.3044 31.9929 38.1216C33.216 38.9389 34.654 39.3751 36.125 39.3751C38.0975 39.3751 39.9893 38.5915 41.3841 37.1967C42.7789 35.8019 43.5625 33.9101 43.5625 31.9376ZM50.8725 43.6251C52.1788 44.636 53.2478 45.921 54.0041 47.3895C54.7603 48.8581 55.1856 50.4745 55.25 52.1251V56.3751H63.75V52.1251C63.75 52.1251 63.75 44.4113 50.8725 43.6251ZM48.875 24.5001C47.4125 24.4933 45.9824 24.9305 44.7737 25.7538C46.0646 27.5574 46.7586 29.7197 46.7586 31.9376C46.7586 34.1555 46.0646 36.3178 44.7737 38.1213C45.9824 38.9447 47.4125 39.3819 48.875 39.3751C50.8475 39.3751 52.7393 38.5915 54.1341 37.1967C55.5289 35.8019 56.3125 33.9101 56.3125 31.9376C56.3125 29.965 55.5289 28.0733 54.1341 26.6785C52.7393 25.2837 50.8475 24.5001 48.875 24.5001Z" fill="#406175"/>
</svg>
